<svg width="612" height="161" viewBox="0 0 612 161" fill="none" xmlns="http://www.w3.org/2000/svg">
<path d="M114 2C114.66 2 115.32 2 116 2C115.374 5.68337 114.345 8.87853 112.891 12.3164C112.465 13.329 112.04 14.3415 111.602 15.3848C110.933 16.9577 110.933 16.9577 110.25 18.5625C109.819 19.5841 109.389 20.6057 108.945 21.6582C108.071 23.732 107.195 25.8049 106.317 27.877C105.01 30.9761 103.723 34.083 102.438 37.1914C100.311 42.3027 98.0587 47.3441 95.75 52.375C90.8591 63.1248 86.3994 74.0415 82 85C82.7348 84.7035 83.4695 84.407 84.2266 84.1016C89.5397 82.5505 94.8868 82.0085 100.375 81.375C101.493 81.2409 102.61 81.1069 103.762 80.9688C106.507 80.6402 109.253 80.3175 112 80C112.33 80.66 112.66 81.32 113 82C111.961 82.5195 110.922 83.039 109.852 83.5742C109.18 83.91 108.509 84.2458 107.817 84.5918C106.352 85.3241 104.887 86.0559 103.421 86.7871C100.202 88.3944 96.9858 90.0072 93.7812 91.6445C92.9047 92.0918 92.0281 92.5391 91.125 93C89.9842 93.5878 89.9842 93.5878 88.8203 94.1875C87 95 87 95 85 95C88.905 99.1085 93.1023 102.53 97.625 105.938C98.3621 106.497 99.0992 107.056 99.8586 107.632C109.907 115.232 119.992 122.808 130.312 130.035C131.299 130.728 131.299 130.728 132.306 131.435C133.529 132.29 134.757 133.139 135.989 133.981C137.361 134.939 138.687 135.963 140 137C140 137.66 140 138.32 140 139C140.784 139.309 141.567 139.619 142.375 139.938C145 141 145 141 147 142C146.67 142.99 146.34 143.98 146 145C144.832 144.55 143.664 144.1 142.461 143.637C130.967 139.226 119.431 134.944 107.865 130.727C99.2771 127.595 90.7167 124.406 82.2258 121.017C79.1481 119.795 76.2241 118.806 73 118C73.495 124.93 73.495 124.93 74 132C73.01 132 72.02 132 71 132C69.1758 130.102 69.1758 130.102 67.3125 127.625C66.6899 126.813 66.0673 126.001 65.4258 125.164C64 123 64 123 64 121C60.1606 123.084 57.5459 125.333 54.6875 128.625C53.9179 129.502 53.1484 130.378 52.3555 131.281C51.5782 132.178 50.8009 133.076 50 134C48.5029 135.711 47.0032 137.419 45.5 139.125C44.8503 139.87 44.2006 140.615 43.5312 141.383C43.0259 141.916 42.5206 142.45 42 143C41.67 143 41.34 143 41 143C41 134.09 41 125.18 41 116C37.9681 116.866 37.9681 116.866 34.875 117.75C33.8567 118.039 33.8567 118.039 32.8179 118.334C29.5922 119.25 26.3734 120.184 23.1641 121.156C21.9549 121.517 20.7458 121.878 19.5 122.25C17.8448 122.753 17.8448 122.753 16.1562 123.266C12.9878 124.003 10.24 124.137 7 124C10.4908 120.426 14.111 117.09 17.9375 113.875C18.4895 113.409 19.0414 112.943 19.6101 112.464C25.9482 107.151 32.4643 102.066 39 97C35.4839 94.0277 31.9754 91.7756 27.8945 89.6523C26.7466 89.0471 25.5987 88.4419 24.416 87.8184C22.6068 86.8725 20.7963 85.9291 18.9846 84.988C17.2221 84.07 15.4645 83.1426 13.707 82.2148C12.6601 81.6695 11.6131 81.1241 10.5344 80.5623C8 79 8 79 6 76C11.464 76.6522 16.5882 77.8652 21.875 79.375C22.6715 79.5991 23.468 79.8231 24.2886 80.054C28.9367 81.3734 33.5343 82.7846 38.0977 84.375C41.3521 85.4442 44.6677 86.2124 48 87C46.7999 79.243 44.8838 71.992 42.375 64.5625C41.7316 62.6489 41.0934 60.7336 40.4609 58.8164C40.0401 57.5703 40.0401 57.5703 39.6108 56.2991C39 54 39 54 39 50C39.66 50 40.32 50 41 50C42.2705 51.615 42.2705 51.615 43.7031 53.8711C44.2336 54.6934 44.764 55.5156 45.3105 56.3628C45.8681 57.2331 46.4256 58.1033 47 59C49.2324 62.3661 51.4904 65.7146 53.75 69.0625C54.3262 69.9281 54.9024 70.7937 55.4961 71.6855C56.3256 72.9105 56.3256 72.9105 57.1719 74.1602C57.6678 74.8989 58.1638 75.6376 58.6748 76.3987C59.1121 76.9271 59.5494 77.4556 60 78C60.66 78 61.32 78 62 78C63.5862 75.8221 65.0538 73.6438 66.5 71.375C67.4004 69.9922 68.3028 68.6107 69.207 67.2305C69.6693 66.5245 70.1316 65.8186 70.6079 65.0913C73.4525 60.8179 76.4758 56.6732 79.4805 52.5117C86.2074 43.1659 92.6113 33.6211 98.9512 24.0098C102.968 17.9514 107.11 12.0198 111.436 6.17749C113.018 4.097 113.018 4.097 114 2Z" fill="#F9BB13"/>
<path d="M326.418 33.6779C327.548 33.6811 327.548 33.6811 328.701 33.6845C330.964 33.6876 333.225 33.6643 335.488 33.6388C353.944 33.5554 353.944 33.5554 359.668 38.4169C362.926 42.1166 364.116 45.3646 364.161 50.1928C364.171 51.0341 364.18 51.8754 364.19 52.7422C364.194 53.6484 364.199 54.5547 364.203 55.4884C364.209 56.4244 364.214 57.3603 364.22 58.3247C364.23 60.3059 364.236 62.2872 364.24 64.2685C364.25 67.2906 364.281 70.3121 364.312 73.3341C364.319 75.2606 364.324 77.187 364.328 79.1134C364.34 80.0136 364.353 80.9138 364.365 81.8413C364.342 88.6263 363.062 92.7946 358.312 97.8751C357.168 98.927 357.168 98.927 356 100C356.542 101.948 357.084 103.896 357.626 105.843C358.085 107.494 358.542 109.146 358.998 110.798C359.987 114.374 360.984 117.945 362.035 121.504C362.312 122.452 362.589 123.399 362.875 124.375C363.12 125.187 363.365 125.999 363.617 126.836C364 129 364 129 363 133C357.72 133 352.44 133 347 133C344.8 126.008 342.673 119.011 340.75 111.938C340.247 110.095 340.247 110.095 339.734 108.215C339 105 339 105 339 101C336.36 100.67 333.72 100.34 331 100C331.008 101.446 331.008 101.446 331.016 102.922C331.034 106.487 331.045 110.052 331.055 113.617C331.06 115.162 331.067 116.708 331.075 118.253C331.087 120.469 331.093 122.686 331.098 124.902C331.103 125.597 331.108 126.292 331.113 127.008C331.113 128.672 331.062 130.337 331 132C329.179 133.821 326.693 133.132 324.273 133.137C323.148 133.131 323.148 133.131 322 133.125C320.875 133.131 320.875 133.131 319.727 133.137C314.127 133.127 314.127 133.127 313 132C312.894 129.028 312.853 126.079 312.855 123.106C312.851 122.173 312.848 121.239 312.844 120.278C312.835 117.176 312.833 114.074 312.832 110.973C312.829 108.827 312.825 106.681 312.822 104.534C312.816 100.029 312.814 95.5241 312.815 91.0189C312.815 85.2336 312.801 79.4484 312.784 73.6631C312.773 69.2289 312.771 64.7947 312.771 60.3604C312.77 58.2269 312.766 56.0934 312.758 53.9598C312.748 50.9811 312.751 48.0026 312.757 45.0238C312.751 44.1349 312.746 43.246 312.74 42.3302C312.793 32.1785 317.846 33.7108 326.418 33.6779ZM331 52.0001C331 62.2301 331 72.4601 331 83.0001C335.62 83.0001 340.24 83.0001 345 83.0001C347.27 79.5946 347.257 78.343 347.266 74.3439C347.268 73.2392 347.271 72.1344 347.273 70.9962C347.266 69.8425 347.258 68.6888 347.25 67.5001C347.258 66.3464 347.265 65.1927 347.273 64.0041C347.27 62.347 347.27 62.347 347.266 60.6564C347.263 59.6438 347.261 58.6313 347.259 57.588C347.181 54.7629 347.181 54.7629 345 52.0001C340.38 52.0001 335.76 52.0001 331 52.0001Z" fill="white"/>
<path d="M457.187 33.75C458.407 33.7191 458.407 33.7191 459.65 33.6875C466.918 33.6412 473.403 34.6797 478.937 39.625C483.915 47.7697 483.294 57.0641 483.265 66.3086C483.267 67.6842 483.269 69.0599 483.271 70.4356C483.274 73.3058 483.27 76.1759 483.261 79.0461C483.249 82.6983 483.256 86.3503 483.268 90.0024C483.275 92.8397 483.273 95.6769 483.268 98.5142C483.266 100.507 483.272 102.5 483.278 104.493C483.192 121.321 483.192 121.321 479.25 127.937C472.75 133.896 466.019 133.518 457.625 133.5C455.834 133.543 455.834 133.543 454.008 133.586C447.697 133.6 442.921 133.226 437.564 129.76C433.341 125.009 432.622 119.689 432.596 113.539C432.589 112.829 432.582 112.119 432.575 111.388C432.557 109.062 432.561 106.736 432.566 104.41C432.562 102.78 432.556 101.15 432.55 99.5204C432.541 96.1119 432.544 92.7036 432.554 89.2952C432.565 84.943 432.545 80.5916 432.516 76.2396C432.497 72.8756 432.498 69.5119 432.504 66.1479C432.504 64.544 432.498 62.9402 432.485 61.3364C432.38 45.5614 432.38 45.5614 437 39C443.262 34.0619 449.577 33.7971 457.187 33.75ZM450 53C449.539 55.6911 449.539 55.6911 449.612 58.8867C449.602 60.1214 449.593 61.3561 449.583 62.6282C449.588 63.9813 449.595 65.3344 449.601 66.6875C449.599 68.0699 449.597 69.4523 449.593 70.8347C449.588 73.7333 449.595 76.6317 449.609 79.5303C449.626 83.2497 449.616 86.9685 449.598 90.688C449.587 93.543 449.591 96.3978 449.598 99.2528C449.6 100.624 449.598 101.996 449.591 103.368C449.583 105.283 449.597 107.198 449.612 109.113C449.614 110.204 449.616 111.295 449.619 112.419C449.745 113.271 449.87 114.123 450 115C453.218 117.146 454.268 117.296 458 117.312C458.866 117.329 459.732 117.346 460.625 117.363C463.557 116.915 464.241 116.361 466 114C466.456 111.25 466.456 111.25 466.388 108.092C466.398 106.877 466.407 105.662 466.417 104.411C466.411 103.098 466.405 101.786 466.398 100.434C466.4 99.075 466.403 97.7165 466.407 96.3579C466.411 93.5123 466.405 90.6671 466.391 87.8215C466.374 84.1705 466.384 80.5201 466.402 76.8691C466.413 74.0647 466.409 71.2604 466.401 68.456C466.398 66.454 466.407 64.452 466.417 62.45C466.407 61.2386 466.398 60.0272 466.388 58.779C466.386 57.7089 466.383 56.6387 466.381 55.5361C466.255 54.6992 466.129 53.8623 466 53C462.761 50.8406 461.751 50.7277 458 50.75C456.7 50.7423 456.7 50.7423 455.375 50.7344C452.734 50.8458 452.734 50.8458 450 53Z" fill="white"/>
<path d="M376.187 33.7344C378.075 33.7421 378.075 33.7421 380 33.75C381.258 33.7448 382.516 33.7397 383.812 33.7344C387 34 387 34 389 36C389.175 38.6529 389.231 41.1999 389.195 43.8516C389.192 44.6256 389.19 45.3996 389.187 46.1971C389.175 48.6732 389.15 51.149 389.125 53.625C389.115 55.3021 389.106 56.9792 389.098 58.6562C389.076 62.771 389.041 66.8854 389 71C390.505 69.4951 391.141 67.6914 392.039 65.7656C392.452 64.8869 392.864 64.0081 393.289 63.1028C393.73 62.1614 394.171 61.2199 394.625 60.25C405.253 37.7465 405.253 37.7465 409 34C412.187 33.7695 412.187 33.7695 416 33.8125C417.258 33.8189 418.516 33.8254 419.812 33.832C423 34 423 34 425 35C424.452 39.8669 422.885 43.6601 420.625 47.9375C419.915 49.3489 419.206 50.7603 418.496 52.1719C416.685 55.7243 414.778 59.2142 412.848 62.7031C407.05 72.7276 407.05 72.7276 405.168 83.832C406.452 87.2016 408.052 89.9693 410 93C411.089 95.2999 412.15 97.6135 413.187 99.9375C413.771 101.183 414.359 102.426 414.949 103.668C417.484 109.021 420.006 114.378 422.5 119.75C422.958 120.715 423.416 121.681 423.887 122.676C424.306 123.582 424.725 124.488 425.156 125.422C425.536 126.232 425.915 127.043 426.307 127.878C427 130 427 130 426 133C420.39 133 414.78 133 409 133C402.851 121.348 397.981 109.185 393 97C390.156 101.019 389.606 103.872 389.523 108.762C389.477 110.687 389.477 110.687 389.43 112.65C389.411 113.996 389.392 115.342 389.375 116.688C389.327 119.337 389.27 121.987 389.211 124.637C389.185 126.396 389.185 126.396 389.158 128.19C389 131 389 131 388 133C382.72 133 377.44 133 372 133C370.312 129.625 370.853 125.797 370.855 122.084C370.851 121.16 370.848 120.237 370.844 119.285C370.835 116.221 370.833 113.158 370.832 110.094C370.829 107.971 370.825 105.849 370.822 103.727C370.816 99.2748 370.814 94.8227 370.815 90.3706C370.815 84.6537 370.801 78.9369 370.784 73.22C370.773 68.8364 370.771 64.4528 370.771 60.0692C370.77 57.9608 370.766 55.8523 370.758 53.7439C370.748 50.8012 370.751 47.8588 370.757 44.916C370.751 44.038 370.746 43.16 370.74 42.2554C370.782 34.1848 370.782 34.1848 376.187 33.7344Z" fill="white"/>
<path d="M175 37.0002C178.709 39.999 180.653 42.4583 182 47.0002C182.262 50.4208 182.234 53.8215 182.188 57.2502C182.187 58.1732 182.186 59.0961 182.186 60.0471C182.141 66.8597 182.141 66.8597 181 68.0002C178.489 68.0999 176.011 68.139 173.5 68.1252C172.798 68.1291 172.095 68.1329 171.371 68.1369C166.127 68.1268 166.127 68.1268 165 67.0002C164.791 65.0251 164.632 63.0445 164.5 61.0627C164.323 56.8785 164.323 56.8785 163 53.0002C159.04 53.0002 155.08 53.0002 151 53.0002C150.67 59.6002 150.34 66.2002 150 73.0002C151.609 73.3714 153.218 73.7427 154.875 74.1252C160.528 75.5452 166.08 77.2065 171.625 79.0002C172.419 79.2491 173.213 79.4981 174.031 79.7546C175.149 80.1237 175.149 80.1237 176.289 80.5002C176.956 80.7167 177.624 80.9333 178.311 81.1564C180 82.0002 180 82.0002 182 85.0002C182.208 87.6877 182.304 90.269 182.301 92.9572C182.305 93.7378 182.309 94.5184 182.314 95.3226C182.32 96.9743 182.32 98.6261 182.316 100.278C182.313 102.793 182.336 105.307 182.361 107.822C182.364 109.43 182.364 111.037 182.363 112.645C182.373 113.392 182.382 114.139 182.391 114.909C182.343 120.384 181.236 124.549 177.5 128.645C170.92 133.768 165.308 133.247 157.25 133.313C155.498 133.356 155.498 133.356 153.711 133.401C146.9 133.451 142.478 133.188 137 129C130.52 121.327 131.579 111.558 132 102C132.495 101.01 132.495 101.01 133 100C135.646 99.9733 138.292 99.9534 140.938 99.9377C141.692 99.9293 142.447 99.9209 143.225 99.9123C145.15 99.9037 147.075 99.9479 149 100C150 101 150 101 150.098 104.16C150.086 105.448 150.075 106.736 150.063 108.063C150.054 109.353 150.045 110.643 150.035 111.973C150.024 112.972 150.012 113.971 150 115C154.29 115 158.58 115 163 115C164.254 111.237 164.107 107.728 164.063 103.813C164.058 103.063 164.054 102.314 164.049 101.541C164.037 99.6942 164.019 97.8472 164 96.0002C162.653 95.5772 162.653 95.5772 161.278 95.1457C157.945 94.0917 154.618 93.0243 151.293 91.9475C149.853 91.4843 148.412 91.0266 146.968 90.5744C144.893 89.9232 142.825 89.2528 140.758 88.5783C139.512 88.1803 138.265 87.7823 136.981 87.3723C134 86.0002 134 86.0002 132.594 84.2697C131.782 81.1662 131.74 78.3186 131.734 75.1096C131.733 74.4461 131.731 73.7827 131.729 73.0991C131.727 71.6972 131.731 70.2952 131.739 68.8933C131.75 66.7711 131.739 64.6497 131.727 62.5275C131.709 46.6802 131.709 46.6802 136.063 39.6877C144.993 31.5172 164.568 30.9671 175 37.0002Z" fill="white"/>
<path d="M589 37C592.709 39.9989 594.653 42.4581 596 47C596.262 50.4207 596.234 53.8213 596.188 57.25C596.187 58.173 596.186 59.096 596.186 60.0469C596.141 66.8596 596.141 66.8596 595 68C592.489 68.0998 590.011 68.1388 587.5 68.125C586.798 68.1289 586.095 68.1327 585.371 68.1367C580.127 68.1266 580.127 68.1266 579 67C578.675 63.6389 578.486 60.2767 578.281 56.9063C578.321 54.1095 578.321 54.1095 577 53C574.98 52.9276 572.958 52.9162 570.938 52.9375C567.999 52.9685 567.999 52.9685 565 53C565 59.27 565 65.54 565 72C570.195 73.9297 575.385 75.8186 580.668 77.4961C581.475 77.755 582.282 78.014 583.114 78.2808C584.733 78.7977 586.355 79.306 587.98 79.8052C588.73 80.0461 589.481 80.287 590.254 80.5352C590.928 80.7454 591.601 80.9556 592.295 81.1721C594 82 594 82 596 85C596.208 87.6876 596.304 90.2689 596.301 92.957C596.305 93.7376 596.309 94.5182 596.314 95.3224C596.32 96.9742 596.32 98.6259 596.316 100.278C596.313 102.793 596.336 105.307 596.361 107.822C596.364 109.43 596.364 111.037 596.363 112.645C596.373 113.392 596.382 114.139 596.391 114.908C596.343 120.383 595.236 124.549 591.5 128.645C584.92 133.768 579.308 133.247 571.25 133.313C569.498 133.356 569.498 133.356 567.711 133.4C560.896 133.451 556.499 133.159 551 129C547.553 125.208 546.873 121.924 546.902 116.895C546.906 115.912 546.909 114.929 546.912 113.916C546.921 112.892 546.929 111.868 546.938 110.813C546.942 109.777 546.947 108.741 546.951 107.674C546.963 105.116 546.979 102.558 547 100C549.646 99.9732 552.292 99.9533 554.938 99.9375C555.692 99.9291 556.447 99.9208 557.225 99.9121C559.15 99.9035 561.075 99.9478 563 100C565.332 102.332 564.527 107.939 564.719 111.094C564.679 113.891 564.679 113.891 566 115C567.831 115.099 569.666 115.13 571.5 115.125C573.001 115.129 573.001 115.129 574.531 115.133C576.944 115.279 576.944 115.279 578 114C578.086 112.657 578.107 111.31 578.098 109.965C578.093 108.752 578.093 108.752 578.088 107.514C578.08 106.664 578.071 105.813 578.063 104.938C578.058 104.084 578.054 103.23 578.049 102.35C578.037 100.233 578.019 98.1165 578 96C576.645 95.5535 576.645 95.5535 575.262 95.0979C571.92 93.9952 568.578 92.8897 565.238 91.7825C563.79 91.3032 562.341 90.825 560.893 90.3479C558.814 89.6631 556.737 88.9745 554.66 88.2852C553.409 87.8715 552.157 87.4578 550.868 87.0315C548 86 548 86 547 85C546.862 82.1131 546.787 79.2519 546.762 76.3633C546.754 75.4911 546.746 74.6189 546.737 73.7203C546.723 71.8683 546.713 70.0163 546.705 68.1643C546.688 65.3415 546.644 62.5198 546.6 59.6973C546.59 57.8985 546.581 56.0996 546.574 54.3008C546.557 53.46 546.539 52.6191 546.521 51.7528C546.541 46.346 547.397 43.2823 551 39C560.121 31.8193 578.82 31.1124 589 37Z" fill="white"/>
<path d="M268.945 33.3689C269.665 33.3696 270.384 33.3703 271.125 33.3711C271.914 33.3692 272.703 33.3672 273.516 33.3652C274.745 33.401 274.745 33.401 276 33.4375C276.82 33.4265 277.64 33.4156 278.484 33.4043C284.431 33.4772 284.431 33.4772 286.634 35.5022C288.552 39.0095 289.228 42.6466 289.98 46.5312C290.154 47.3831 290.328 48.2349 290.508 49.1126C290.882 50.9494 291.251 52.7872 291.616 54.6258C292.583 59.4929 293.583 64.3533 294.578 69.2148C294.879 70.6948 294.879 70.6948 295.187 72.2047C297.31 82.6031 299.614 92.9589 301.944 103.312C302.97 107.873 303.991 112.435 305 117C305.219 117.989 305.439 118.977 305.665 119.996C305.849 120.862 306.033 121.728 306.223 122.621C306.453 123.693 306.453 123.693 306.688 124.787C307.071 127.5 307 130.26 307 133C301.72 133 296.44 133 291 133C288.495 126.737 287.359 120.608 286 114C279.4 113.67 272.8 113.34 266 113C264.68 119.6 263.36 126.2 262 133C256.39 133 250.78 133 245 133C245.632 124.847 247.126 117.041 248.875 109.062C249.177 107.672 249.478 106.281 249.778 104.89C250.277 102.585 250.776 100.28 251.277 97.9763C252.567 92.0374 253.826 86.0923 255.074 80.1445C256.05 75.5019 257.033 70.861 258.017 66.2202C258.505 63.9117 258.989 61.6025 259.471 59.2928C260.154 56.0214 260.849 52.7527 261.547 49.4844C261.75 48.4993 261.953 47.5142 262.162 46.4992C264.7 34.7463 264.7 34.7463 268.945 33.3689ZM275 60C274.303 63.9646 273.609 67.9299 272.919 71.8958C272.684 73.241 272.448 74.586 272.212 75.9309C270.92 83.2749 269.709 90.5753 269 98C273.62 98 278.24 98 283 98C282.235 90.0959 280.939 82.3186 279.562 74.5C279.345 73.2135 279.128 71.927 278.904 70.6016C278.69 69.3821 278.475 68.1627 278.254 66.9062C278.061 65.7957 277.869 64.6852 277.67 63.541C277.449 62.7025 277.228 61.8639 277 61C276.34 60.67 275.68 60.34 275 60Z" fill="white"/>
<path d="M491 34.0001C495.544 33.4074 500.122 33.5281 504.701 33.554C506.964 33.5624 509.225 33.5339 511.488 33.502C519.479 33.4628 526.982 33.6831 534 38.0001C540.883 45.5712 540.346 55.6569 540.316 65.2989C540.312 67.3639 540.336 69.4274 540.361 71.4922C540.404 80.3108 540.323 88.9103 534.562 96.0001C530.772 98.9582 528.054 100.229 523.234 100.414C522.345 100.453 521.455 100.491 520.539 100.531C519.619 100.562 518.698 100.593 517.75 100.625C516.814 100.664 515.878 100.702 514.914 100.742C512.61 100.836 510.305 100.922 508 101C507.975 101.934 507.95 102.868 507.924 103.83C507.829 107.283 507.73 110.737 507.628 114.19C507.584 115.686 507.543 117.183 507.503 118.68C507.445 120.827 507.381 122.974 507.316 125.121C507.28 126.415 507.243 127.708 507.205 129.041C507 132 507 132 506 133C503.303 133.073 500.633 133.092 497.937 133.063C497.179 133.058 496.42 133.054 495.639 133.049C493.759 133.037 491.879 133.019 490 133C488.325 129.651 488.853 125.875 488.855 122.192C488.851 121.279 488.848 120.367 488.844 119.427C488.835 116.401 488.833 113.374 488.832 110.348C488.829 108.25 488.825 106.153 488.822 104.055C488.816 99.6545 488.814 95.2537 488.815 90.8528C488.815 85.2055 488.801 79.5583 488.784 73.9111C488.773 69.578 488.771 65.245 488.771 60.9119C488.77 58.8295 488.766 56.747 488.758 54.6645C488.748 51.7555 488.751 48.8468 488.757 45.9378C488.751 45.0728 488.746 44.2077 488.74 43.3165C488.772 37.3425 488.772 37.3425 491 34.0001ZM507 52.0001C507 62.2301 507 72.4601 507 83.0001C511.29 83.0001 515.58 83.0001 520 83.0001C522.274 81.1531 522.274 81.1531 522.243 78.3262C522.239 77.2183 522.235 76.1103 522.23 74.9688C522.228 73.7661 522.227 72.5634 522.225 71.3243C522.212 70.0623 522.2 68.8003 522.187 67.5001C522.187 66.2381 522.186 64.9761 522.185 63.6758C522.479 57.6573 522.479 57.6573 521 52.0001C516.38 52.0001 511.76 52.0001 507 52.0001Z" fill="white"/>
<path d="M202.111 33.6777C202.843 33.6799 203.575 33.6821 204.328 33.6843C206.53 33.6874 208.73 33.6641 210.932 33.6387C219.726 33.5984 227.767 33.6678 234.938 39.3125C239.114 44.7538 239.318 50.2475 239.336 56.8359C239.343 57.6741 239.349 58.5123 239.356 59.3759C239.366 61.1425 239.371 62.9091 239.371 64.6758C239.375 67.36 239.411 70.0426 239.449 72.7265C239.455 74.4505 239.459 76.1745 239.461 77.8984C239.475 78.6914 239.49 79.4843 239.505 80.3013C239.459 85.9603 238.162 90.2699 235 95C231.014 98.7017 228.587 100.13 223.211 100.098C222.27 100.094 221.329 100.091 220.359 100.088C219.375 100.079 218.39 100.071 217.375 100.062C216.383 100.058 215.39 100.053 214.367 100.049C211.911 100.037 209.456 100.021 207 100C207.008 101.393 207.008 101.393 207.016 102.814C207.033 106.254 207.046 109.694 207.055 113.135C207.06 114.625 207.067 116.115 207.076 117.604C207.088 119.744 207.093 121.884 207.098 124.023C207.106 125.956 207.106 125.956 207.114 127.927C207 131 207 131 206 133C203.354 133.027 200.709 133.047 198.063 133.062C197.308 133.071 196.553 133.079 195.775 133.088C193.85 133.097 191.925 133.052 190 133C188.105 131.105 188.867 128.328 188.853 125.805C188.854 124.915 188.854 124.024 188.855 123.106C188.851 122.172 188.848 121.239 188.845 120.278C188.835 117.176 188.833 114.074 188.832 110.973C188.829 108.827 188.826 106.68 188.822 104.534C188.816 100.029 188.814 95.524 188.815 91.0188C188.815 85.2335 188.801 79.4483 188.784 73.663C188.773 69.2287 188.771 64.7945 188.771 60.3603C188.77 58.2267 188.766 56.0932 188.758 53.9597C188.748 50.9809 188.751 48.0024 188.757 45.0237C188.752 44.1348 188.746 43.2458 188.74 42.33C188.792 32.2994 193.614 33.7113 202.111 33.6777ZM207 52C207 62.23 207 72.46 207 83C211.29 83 215.58 83 220 83C221.857 81.1428 221.131 78.0749 221.133 75.5937C221.134 74.2931 221.135 72.9924 221.137 71.6523C221.135 70.9715 221.133 70.2908 221.13 69.5893C221.125 67.5087 221.13 65.4283 221.137 63.3476C221.136 62.047 221.134 60.7463 221.133 59.4062C221.132 58.2029 221.131 56.9995 221.129 55.7597C221.315 53.0901 221.315 53.0901 220 52C215.71 52 211.42 52 207 52Z" fill="white"/>
<path d="M506 51C511.28 51 516.56 51 522 51C523.455 53.9105 523.13 56.4756 523.133 59.7227C523.134 60.7137 523.134 60.7137 523.136 61.7247C523.136 63.1209 523.135 64.5171 523.13 65.9133C523.125 68.0575 523.13 70.2015 523.137 72.3457C523.136 73.7005 523.135 75.0553 523.133 76.4102C523.132 77.649 523.131 78.8879 523.129 80.1643C523 83 523 83 522 84C516.72 84 511.44 84 506 84C506 73.11 506 62.22 506 51ZM507 52C507 62.23 507 72.46 507 83C511.29 83 515.58 83 520 83C522.274 81.1531 522.274 81.1531 522.243 78.3262C522.239 77.2182 522.235 76.1103 522.23 74.9688C522.229 73.7661 522.227 72.5634 522.225 71.3242C522.212 70.0622 522.2 68.8002 522.188 67.5C522.187 66.238 522.186 64.976 522.186 63.6758C522.479 57.6573 522.479 57.6573 521 52C516.38 52 511.76 52 507 52Z" fill="white"/>
<path d="M6 76C11.9129 76.6427 17.3424 78.19 23 80C21.68 80.33 20.36 80.66 19 81C19.66 82.32 20.32 83.64 21 85C8.23529 80.4706 8.23529 80.4706 6 76Z" fill="#FCD265"/>
<path d="M17 116C16.34 117.32 15.68 118.64 15 120C20.94 119.505 20.94 119.505 27 119C21.2845 122.81 13.8537 124.556 7 124C8.66667 122.333 10.3333 120.667 12 119C12.5569 118.402 13.1137 117.804 13.6875 117.188C15 116 15 116 17 116Z" fill="#FCD474"/>
<path d="M114 2C114.66 2 115.32 2 116 2C115.345 6.05819 114.054 9.53971 112.438 13.3125C111.982 14.3811 111.527 15.4498 111.059 16.5508C110.535 17.7631 110.535 17.7631 110 19C109 16 109 16 109 14C108.34 13.67 107.68 13.34 107 13C108.116 11.1614 109.243 9.3292 110.375 7.5C111.001 6.47906 111.628 5.45812 112.273 4.40625C112.843 3.61219 113.413 2.81813 114 2Z" fill="#FCD26D"/>
<path d="M138 137C138.66 137 139.32 137 140 137C140 137.66 140 138.32 140 139C140.784 139.309 141.567 139.619 142.375 139.938C145 141 145 141 147 142C146.67 142.99 146.34 143.98 146 145C140.72 143.02 135.44 141.04 130 139C133.702 138.075 134.635 137.918 138 139C138 138.34 138 137.68 138 137Z" fill="#FCDA88"/>
<path d="M520 51C520.66 51 521.32 51 522 51C523.461 53.922 523.111 56.4989 523.098 59.7578C523.096 60.7524 523.096 60.7524 523.093 61.7671C523.088 63.8864 523.075 66.0057 523.062 68.125C523.057 69.5612 523.053 70.9974 523.049 72.4336C523.038 75.9558 523.021 79.4779 523 83C521.515 83.495 521.515 83.495 520 84C520.33 83.01 520.66 82.02 521 81C521.095 78.9705 521.131 76.938 521.133 74.9062C521.134 73.7113 521.135 72.5163 521.137 71.2852C521.133 70.0361 521.129 68.787 521.125 67.5C521.129 66.2509 521.133 65.0018 521.137 63.7148C521.135 61.9224 521.135 61.9224 521.133 60.0938C521.132 58.9974 521.131 57.9011 521.129 56.7715C521.122 53.9122 521.122 53.9122 520 51Z" fill="white"/>
<path d="M39 50C39.66 50 40.32 50 41 50C43.1875 52.8125 43.1875 52.8125 45 56C44.67 56.99 44.34 57.98 44 59C43.01 59.33 42.02 59.66 41 60C39.6837 56.3803 39 53.9043 39 50Z" fill="#FCD065"/>
<path d="M72 116C73.65 116.33 75.3 116.66 77 117C75.68 117.33 74.36 117.66 73 118C73.33 122.62 73.66 127.24 74 132C73.01 132 72.02 132 71 132C71.33 126.72 71.66 121.44 72 116Z" fill="#FCDB99"/>
<path d="M113 80.9998C111.812 82.5623 111.812 82.5623 110 83.9998C107.938 83.6873 107.938 83.6873 105 82.9998C101.665 82.8975 98.3356 82.9415 95 82.9998C95 82.6698 95 82.3398 95 81.9998C97.4365 81.6372 99.8738 81.2844 102.312 80.9373C103.003 80.8335 103.693 80.7298 104.404 80.6229C107.696 80.1617 109.802 79.9339 113 80.9998Z" fill="#FDDD98"/>
<path d="M138 137C138.66 137 139.32 137 140 137C140.33 138.32 140.66 139.64 141 141C139.742 140.876 138.484 140.752 137.188 140.625C136.126 140.521 136.126 140.521 135.043 140.414C133 140 133 140 130 138C132.64 138.33 135.28 138.66 138 139C138 138.34 138 137.68 138 137Z" fill="#FCCB4D"/>
<path d="M109 82.9999C108.34 82.9999 107.68 82.9999 107 82.9999C107 83.6599 107 84.3199 107 84.9999C105.02 85.6599 103.04 86.3199 101 86.9999C101.312 85.0624 101.312 85.0624 102 82.9999C105.133 81.9554 105.99 82.0657 109 82.9999Z" fill="#FBC333"/>
</svg>
