<svg xmlns="http://www.w3.org/2000/svg" xmlns:xlink="http://www.w3.org/1999/xlink" width="50" zoomAndPan="magnify" viewBox="0 0 37.5 37.499999" height="50" preserveAspectRatio="xMidYMid meet" version="1.0"><defs><clipPath id="719be837cb"><path d="M 1.964844 0.00390625 L 35.042969 0.00390625 L 35.042969 37.003906 L 1.964844 37.003906 Z M 1.964844 0.00390625 " clip-rule="nonzero"/></clipPath></defs><g clip-path="url(#719be837cb)"><path fill="#4f46e5" d="M 32.910156 26.601562 L 19.410156 18.808594 C 19.441406 18.714844 19.460938 18.609375 19.460938 18.503906 C 19.460938 18.394531 19.441406 18.292969 19.410156 18.195312 L 32.5 10.640625 C 32.722656 10.929688 33.054688 11.132812 33.433594 11.183594 L 33.433594 26.296875 C 33.226562 26.339844 33.042969 26.449219 32.910156 26.601562 Z M 19.296875 35.285156 C 19.105469 35.0625 18.820312 34.917969 18.503906 34.917969 C 18.1875 34.917969 17.902344 35.0625 17.710938 35.285156 L 4.699219 27.773438 C 4.765625 27.605469 4.804688 27.425781 4.804688 27.230469 C 4.804688 27.039062 4.765625 26.859375 4.699219 26.691406 L 17.785156 19.132812 C 17.921875 19.289062 18.105469 19.398438 18.316406 19.441406 L 18.316406 34.359375 L 18.691406 34.359375 L 18.691406 19.441406 C 18.902344 19.398438 19.085938 19.289062 19.222656 19.132812 L 32.722656 26.929688 C 32.6875 27.023438 32.671875 27.125 32.671875 27.230469 C 32.671875 27.339844 32.6875 27.441406 32.722656 27.535156 L 31.5625 28.203125 Z M 4.101562 10.402344 L 17.597656 18.195312 C 17.566406 18.292969 17.546875 18.394531 17.546875 18.503906 C 17.546875 18.609375 17.566406 18.714844 17.597656 18.808594 L 4.511719 26.367188 C 4.285156 26.078125 3.953125 25.875 3.574219 25.824219 L 3.574219 10.707031 C 3.78125 10.667969 3.964844 10.558594 4.101562 10.402344 Z M 18.691406 17.566406 L 18.691406 2.644531 L 18.316406 2.644531 L 18.316406 17.566406 C 18.105469 17.609375 17.921875 17.71875 17.785156 17.871094 L 4.289062 10.078125 C 4.320312 9.984375 4.335938 9.882812 4.335938 9.773438 C 4.335938 9.667969 4.320312 9.566406 4.289062 9.46875 L 17.710938 1.71875 C 17.902344 1.945312 18.1875 2.085938 18.503906 2.085938 C 18.820312 2.085938 19.105469 1.945312 19.296875 1.71875 L 32.308594 9.234375 C 32.242188 9.398438 32.203125 9.582031 32.203125 9.773438 C 32.203125 9.964844 32.242188 10.148438 32.308594 10.316406 L 19.222656 17.871094 C 19.085938 17.71875 18.902344 17.609375 18.691406 17.566406 Z M 33.621094 8.355469 C 33.164062 8.355469 32.757812 8.570312 32.5 8.910156 L 29.027344 6.90625 L 19.484375 1.394531 C 19.523438 1.285156 19.546875 1.167969 19.546875 1.046875 C 19.546875 0.472656 19.078125 0.00390625 18.503906 0.00390625 C 17.929688 0.00390625 17.464844 0.472656 17.464844 1.046875 C 17.464844 1.167969 17.484375 1.285156 17.523438 1.394531 L 4.101562 9.144531 C 3.925781 8.949219 3.671875 8.824219 3.386719 8.824219 C 2.859375 8.824219 2.433594 9.25 2.433594 9.773438 C 2.433594 10.234375 2.761719 10.621094 3.199219 10.707031 L 3.199219 25.824219 C 2.503906 25.917969 1.964844 26.511719 1.964844 27.230469 C 1.964844 28.015625 2.601562 28.652344 3.386719 28.652344 C 3.84375 28.652344 4.25 28.433594 4.511719 28.097656 L 17.523438 35.609375 C 17.484375 35.71875 17.464844 35.839844 17.464844 35.960938 C 17.464844 36.535156 17.929688 37.003906 18.503906 37.003906 C 19.078125 37.003906 19.546875 36.535156 19.546875 35.960938 C 19.546875 35.839844 19.523438 35.71875 19.484375 35.609375 L 32.910156 27.859375 C 33.082031 28.058594 33.339844 28.183594 33.621094 28.183594 C 34.148438 28.183594 34.574219 27.757812 34.574219 27.230469 C 34.574219 26.769531 34.246094 26.386719 33.808594 26.296875 L 33.808594 11.183594 C 34.503906 11.089844 35.042969 10.496094 35.042969 9.773438 C 35.042969 8.992188 34.40625 8.355469 33.621094 8.355469 " fill-opacity="1" fill-rule="nonzero"/></g></svg>