<svg xmlns="http://www.w3.org/2000/svg" xmlns:xlink="http://www.w3.org/1999/xlink" width="200" zoomAndPan="magnify" viewBox="31.5 0 150 37.5" height="50" preserveAspectRatio="xMidYMid meet" version="1.0"><g fill="#ffffff" fill-opacity="1"><g transform="translate(35.13044, 28.122245)"><g><path d="M 9.703125 0.265625 C 7.179688 0.265625 5.3125 -0.332031 4.09375 -1.53125 C 2.875 -2.726562 2.265625 -4.503906 2.265625 -6.859375 L 2.265625 -18.296875 L 5.8125 -18.296875 L 5.8125 -6.875 C 5.8125 -5.539062 6.128906 -4.539062 6.765625 -3.875 C 7.410156 -3.207031 8.390625 -2.875 9.703125 -2.875 C 12.296875 -2.875 13.59375 -4.207031 13.59375 -6.875 L 13.59375 -18.296875 L 17.125 -18.296875 L 17.125 -6.859375 C 17.125 -4.503906 16.515625 -2.726562 15.296875 -1.53125 C 14.078125 -0.332031 12.210938 0.265625 9.703125 0.265625 Z M 9.703125 0.265625 "/></g></g></g><g fill="#ffffff" fill-opacity="1"><g transform="translate(54.512782, 28.122245)"><g><path d="M 9.640625 0.265625 C 7.878906 0.265625 6.570312 -0.394531 5.71875 -1.71875 L 5.453125 -1.671875 L 5.453125 0 L 1.984375 0 L 1.984375 -19.34375 L 5.453125 -19.34375 L 5.453125 -12.171875 L 5.71875 -12.125 C 6.195312 -12.78125 6.757812 -13.265625 7.40625 -13.578125 C 8.050781 -13.898438 8.820312 -14.0625 9.71875 -14.0625 C 10.84375 -14.0625 11.820312 -13.796875 12.65625 -13.265625 C 13.488281 -12.742188 14.132812 -11.945312 14.59375 -10.875 C 15.0625 -9.800781 15.296875 -8.472656 15.296875 -6.890625 C 15.296875 -5.328125 15.050781 -4.007812 14.5625 -2.9375 C 14.082031 -1.863281 13.414062 -1.0625 12.5625 -0.53125 C 11.71875 0 10.742188 0.265625 9.640625 0.265625 Z M 8.59375 -2.671875 C 9.613281 -2.671875 10.390625 -3.007812 10.921875 -3.6875 C 11.453125 -4.375 11.71875 -5.441406 11.71875 -6.890625 C 11.71875 -8.347656 11.453125 -9.414062 10.921875 -10.09375 C 10.390625 -10.78125 9.613281 -11.125 8.59375 -11.125 C 7.613281 -11.125 6.835938 -10.769531 6.265625 -10.0625 C 5.703125 -9.363281 5.421875 -8.304688 5.421875 -6.890625 C 5.421875 -5.472656 5.703125 -4.414062 6.265625 -3.71875 C 6.835938 -3.019531 7.613281 -2.671875 8.59375 -2.671875 Z M 8.59375 -2.671875 "/></g></g></g><g fill="#ffffff" fill-opacity="1"><g transform="translate(71.031538, 28.122245)"><g><path d="M 13.640625 -6.125 L 4.765625 -6.125 C 4.867188 -4.914062 5.210938 -4.035156 5.796875 -3.484375 C 6.378906 -2.941406 7.175781 -2.671875 8.1875 -2.671875 C 8.976562 -2.671875 9.617188 -2.816406 10.109375 -3.109375 C 10.597656 -3.410156 10.992188 -3.863281 11.296875 -4.46875 L 11.5625 -4.46875 L 13.859375 -2.984375 C 13.410156 -2.015625 12.726562 -1.226562 11.8125 -0.625 C 10.90625 -0.03125 9.695312 0.265625 8.1875 0.265625 C 6.757812 0.265625 5.523438 -0.00390625 4.484375 -0.546875 C 3.441406 -1.085938 2.640625 -1.894531 2.078125 -2.96875 C 1.515625 -4.039062 1.234375 -5.347656 1.234375 -6.890625 C 1.234375 -8.460938 1.53125 -9.785156 2.125 -10.859375 C 2.71875 -11.929688 3.519531 -12.734375 4.53125 -13.265625 C 5.539062 -13.796875 6.675781 -14.0625 7.9375 -14.0625 C 9.882812 -14.0625 11.375 -13.539062 12.40625 -12.5 C 13.445312 -11.46875 13.96875 -9.953125 13.96875 -7.953125 C 13.96875 -7.234375 13.945312 -6.671875 13.90625 -6.265625 Z M 10.65625 -8.359375 C 10.625 -9.410156 10.378906 -10.175781 9.921875 -10.65625 C 9.472656 -11.132812 8.8125 -11.375 7.9375 -11.375 C 6.1875 -11.375 5.15625 -10.367188 4.84375 -8.359375 Z M 10.65625 -8.359375 "/></g></g></g><g fill="#ffffff" fill-opacity="1"><g transform="translate(86.024717, 28.122245)"><g><path d="M 1.984375 0 L 1.984375 -13.796875 L 5.359375 -13.796875 L 5.359375 -11.75 L 5.625 -11.703125 C 5.957031 -12.460938 6.394531 -13.019531 6.9375 -13.375 C 7.476562 -13.738281 8.132812 -13.921875 8.90625 -13.921875 C 9.6875 -13.921875 10.285156 -13.789062 10.703125 -13.53125 L 10.109375 -10.53125 L 9.84375 -10.484375 C 9.625 -10.578125 9.410156 -10.644531 9.203125 -10.6875 C 8.992188 -10.726562 8.738281 -10.75 8.4375 -10.75 C 7.46875 -10.75 6.726562 -10.40625 6.21875 -9.71875 C 5.707031 -9.039062 5.453125 -7.953125 5.453125 -6.453125 L 5.453125 0 Z M 1.984375 0 "/></g></g></g><g fill="#ffffff" fill-opacity="1"><g transform="translate(96.841314, 28.122245)"><g><path d="M 14.671875 -18.296875 L 14.671875 -15.25 L 9.390625 -15.25 L 9.390625 0 L 5.78125 0 L 5.78125 -15.25 L 0.5 -15.25 L 0.5 -18.296875 Z M 14.671875 -18.296875 "/></g></g></g><g fill="#ffffff" fill-opacity="1"><g transform="translate(111.997054, 28.122245)"><g><path d="M 5.375 0.265625 C 4.488281 0.265625 3.722656 0.101562 3.078125 -0.21875 C 2.429688 -0.550781 1.929688 -1.03125 1.578125 -1.65625 C 1.222656 -2.289062 1.046875 -3.046875 1.046875 -3.921875 C 1.046875 -4.742188 1.222656 -5.429688 1.578125 -5.984375 C 1.929688 -6.535156 2.472656 -6.988281 3.203125 -7.34375 C 3.929688 -7.695312 4.890625 -7.972656 6.078125 -8.171875 C 6.898438 -8.304688 7.523438 -8.453125 7.953125 -8.609375 C 8.390625 -8.765625 8.679688 -8.941406 8.828125 -9.140625 C 8.984375 -9.347656 9.0625 -9.601562 9.0625 -9.90625 C 9.0625 -10.351562 8.90625 -10.691406 8.59375 -10.921875 C 8.289062 -11.160156 7.78125 -11.28125 7.0625 -11.28125 C 6.289062 -11.28125 5.554688 -11.109375 4.859375 -10.765625 C 4.171875 -10.421875 3.570312 -9.96875 3.0625 -9.40625 L 2.8125 -9.40625 L 1.359375 -11.59375 C 2.066406 -12.375 2.921875 -12.976562 3.921875 -13.40625 C 4.929688 -13.84375 6.035156 -14.0625 7.234375 -14.0625 C 9.054688 -14.0625 10.375 -13.671875 11.1875 -12.890625 C 12.007812 -12.117188 12.421875 -11.019531 12.421875 -9.59375 L 12.421875 -3.609375 C 12.421875 -2.984375 12.691406 -2.671875 13.234375 -2.671875 C 13.441406 -2.671875 13.644531 -2.710938 13.84375 -2.796875 L 14.03125 -2.734375 L 14.28125 -0.328125 C 14.082031 -0.203125 13.8125 -0.0976562 13.46875 -0.015625 C 13.132812 0.0546875 12.757812 0.09375 12.34375 0.09375 C 11.519531 0.09375 10.875 -0.0625 10.40625 -0.375 C 9.945312 -0.6875 9.617188 -1.179688 9.421875 -1.859375 L 9.15625 -1.890625 C 8.476562 -0.453125 7.21875 0.265625 5.375 0.265625 Z M 6.484375 -2.328125 C 7.285156 -2.328125 7.925781 -2.59375 8.40625 -3.125 C 8.882812 -3.664062 9.125 -4.414062 9.125 -5.375 L 9.125 -6.78125 L 8.890625 -6.828125 C 8.679688 -6.660156 8.40625 -6.519531 8.0625 -6.40625 C 7.726562 -6.300781 7.242188 -6.191406 6.609375 -6.078125 C 5.859375 -5.953125 5.316406 -5.738281 4.984375 -5.4375 C 4.648438 -5.132812 4.484375 -4.703125 4.484375 -4.140625 C 4.484375 -3.546875 4.660156 -3.09375 5.015625 -2.78125 C 5.367188 -2.476562 5.859375 -2.328125 6.484375 -2.328125 Z M 6.484375 -2.328125 "/></g></g></g><g fill="#ffffff" fill-opacity="1"><g transform="translate(126.540062, 28.122245)"><g><path d="M 5.734375 0.265625 C 4.484375 0.265625 3.53125 -0.0664062 2.875 -0.734375 C 2.226562 -1.410156 1.90625 -2.429688 1.90625 -3.796875 L 1.90625 -19.34375 L 5.375 -19.34375 L 5.375 -3.9375 C 5.375 -3.09375 5.722656 -2.671875 6.421875 -2.671875 C 6.617188 -2.671875 6.832031 -2.707031 7.0625 -2.78125 L 7.234375 -2.734375 L 7.546875 -0.0625 C 7.347656 0.0390625 7.09375 0.117188 6.78125 0.171875 C 6.46875 0.234375 6.117188 0.265625 5.734375 0.265625 Z M 5.734375 0.265625 "/></g></g></g><g fill="#ffffff" fill-opacity="1"><g transform="translate(134.468065, 28.122245)"><g><path d="M 13.640625 -6.125 L 4.765625 -6.125 C 4.867188 -4.914062 5.210938 -4.035156 5.796875 -3.484375 C 6.378906 -2.941406 7.175781 -2.671875 8.1875 -2.671875 C 8.976562 -2.671875 9.617188 -2.816406 10.109375 -3.109375 C 10.597656 -3.410156 10.992188 -3.863281 11.296875 -4.46875 L 11.5625 -4.46875 L 13.859375 -2.984375 C 13.410156 -2.015625 12.726562 -1.226562 11.8125 -0.625 C 10.90625 -0.03125 9.695312 0.265625 8.1875 0.265625 C 6.757812 0.265625 5.523438 -0.00390625 4.484375 -0.546875 C 3.441406 -1.085938 2.640625 -1.894531 2.078125 -2.96875 C 1.515625 -4.039062 1.234375 -5.347656 1.234375 -6.890625 C 1.234375 -8.460938 1.53125 -9.785156 2.125 -10.859375 C 2.71875 -11.929688 3.519531 -12.734375 4.53125 -13.265625 C 5.539062 -13.796875 6.675781 -14.0625 7.9375 -14.0625 C 9.882812 -14.0625 11.375 -13.539062 12.40625 -12.5 C 13.445312 -11.46875 13.96875 -9.953125 13.96875 -7.953125 C 13.96875 -7.234375 13.945312 -6.671875 13.90625 -6.265625 Z M 10.65625 -8.359375 C 10.625 -9.410156 10.378906 -10.175781 9.921875 -10.65625 C 9.472656 -11.132812 8.8125 -11.375 7.9375 -11.375 C 6.1875 -11.375 5.15625 -10.367188 4.84375 -8.359375 Z M 10.65625 -8.359375 "/></g></g></g><g fill="#ffffff" fill-opacity="1"><g transform="translate(149.461244, 28.122245)"><g><path d="M 1.984375 0 L 1.984375 -13.796875 L 5.3125 -13.796875 L 5.3125 -11.78125 L 5.578125 -11.71875 C 6.441406 -13.28125 7.835938 -14.0625 9.765625 -14.0625 C 11.359375 -14.0625 12.523438 -13.628906 13.265625 -12.765625 C 14.015625 -11.898438 14.390625 -10.632812 14.390625 -8.96875 L 14.390625 0 L 10.921875 0 L 10.921875 -8.546875 C 10.921875 -9.460938 10.738281 -10.125 10.375 -10.53125 C 10.007812 -10.9375 9.421875 -11.140625 8.609375 -11.140625 C 7.617188 -11.140625 6.84375 -10.816406 6.28125 -10.171875 C 5.726562 -9.523438 5.453125 -8.515625 5.453125 -7.140625 L 5.453125 0 Z M 1.984375 0 "/></g></g></g><g fill="#ffffff" fill-opacity="1"><g transform="translate(165.617363, 28.122245)"><g><path d="M 9.515625 -3.296875 L 10.421875 -0.71875 C 10.046875 -0.414062 9.570312 -0.175781 9 0 C 8.4375 0.175781 7.796875 0.265625 7.078125 0.265625 C 5.585938 0.265625 4.453125 -0.140625 3.671875 -0.953125 C 2.898438 -1.765625 2.515625 -2.945312 2.515625 -4.5 L 2.515625 -11.0625 L 0.40625 -11.0625 L 0.40625 -13.8125 L 2.515625 -13.8125 L 2.515625 -16.5 L 5.984375 -17.0625 L 5.984375 -13.8125 L 9.890625 -13.8125 L 9.890625 -11.0625 L 5.984375 -11.0625 L 5.984375 -4.75 C 5.984375 -4.070312 6.125 -3.578125 6.40625 -3.265625 C 6.6875 -2.953125 7.097656 -2.796875 7.640625 -2.796875 C 8.265625 -2.796875 8.804688 -2.960938 9.265625 -3.296875 Z M 9.515625 -3.296875 "/></g></g></g></svg>